<svg width="1497" height="442" viewBox="0 0 1497 442" fill="none" xmlns="http://www.w3.org/2000/svg">
<path d="M57.9619 340.413H114.715C114.715 340.413 226.031 120.265 492.763 93.281C492.763 93.281 486.79 79.2802 483.866 75.8096C483.859 75.8096 209.182 86.4265 57.9619 340.413Z" fill="#A62032"/>
<path d="M412.65 163.782C489.449 169.95 479.796 245.16 479.796 245.16C478.143 259.161 474.775 269.344 466.082 278.392C422.419 323.857 377.681 292.952 377.681 292.952C412.486 322.248 469.052 319.818 469.052 319.818C544.433 269.155 531.958 180.914 506.532 124.517C506.532 124.517 454.901 131.829 412.65 163.782Z" fill="#35393A"/>
<path d="M398.514 130.543C398.514 130.543 296.437 198.772 350.961 285.68C367.233 311.623 414.388 332.218 462.784 331.863C462.784 331.863 435.853 341.092 411.215 340.413C386.577 339.735 267.947 340.413 267.947 340.413C267.947 340.413 272.774 200.445 398.514 130.543Z" fill="#35393A"/>
<path d="M251.184 340.413H139.159C139.159 340.413 205.837 192.352 402.069 119.492C402.069 119.492 268.454 170.463 251.184 340.413Z" fill="#35393A"/>
<path d="M647.195 79.4932H635.024V90.2837H647.195V79.4932Z" fill="#242729"/>
<path d="M664.458 79.4932H652.287V90.2837H664.458V79.4932Z" fill="#242729"/>
<path d="M969.619 79.4932H957.448V90.2837H969.619V79.4932Z" fill="#242729"/>
<path d="M986.882 79.4932H974.711V90.2837H986.882V79.4932Z" fill="#242729"/>
<path d="M1306.09 79.4932H1293.91V90.2837H1306.09V79.4932Z" fill="#242729"/>
<path d="M1323.35 79.4932H1311.18V90.2837H1323.35V79.4932Z" fill="#242729"/>
<path d="M707.777 83.019C707.777 82.5553 707.686 82.0962 707.511 81.6679C707.335 81.2396 707.078 80.8506 706.753 80.5231C706.429 80.1956 706.044 79.936 705.62 79.7593C705.196 79.5826 704.742 79.4921 704.284 79.4932H699.138C698.213 79.4932 697.326 79.8644 696.671 80.5254C696.016 81.1864 695.647 82.0832 695.645 83.019V176.158H707.777V83.019Z" fill="#242729"/>
<path d="M745.451 176.166C745.568 172.222 745.381 169.414 745.381 169.414V118.743C745.381 117.807 745.014 116.909 744.361 116.247C743.707 115.584 742.821 115.211 741.896 115.209H736.742C735.817 115.211 734.931 115.584 734.277 116.247C733.624 116.909 733.257 117.807 733.257 118.743V174.746C732.548 178.982 730.879 182.949 727.238 184.282C722.7 185.955 715.862 185.631 715.862 185.631V196.556C742.637 197.266 745.163 185.41 745.451 176.166Z" fill="#242729"/>
<path d="M1390.82 155.389V90.4729V83.0347C1390.82 82.0996 1390.45 81.2028 1389.8 80.5416C1389.15 79.8803 1388.26 79.5089 1387.34 79.5089H1382.18C1381.26 79.5089 1380.37 79.8803 1379.72 80.5416C1379.07 81.2028 1378.7 82.0996 1378.7 83.0347V90.4729V155.389C1378.65 157.674 1377.72 159.848 1376.09 161.435C1374.47 163.021 1372.29 163.891 1370.03 163.853H1362.29L1349.72 88.6035L1348.5 81.2678C1348.42 80.8109 1348.26 80.3737 1348.02 79.9812C1347.77 79.5887 1347.45 79.2487 1347.08 78.9805C1346.71 78.7124 1346.28 78.5214 1345.84 78.4186C1345.39 78.3157 1344.93 78.3029 1344.48 78.3809L1339.4 79.2486C1338.49 79.4049 1337.67 79.9214 1337.14 80.6846C1336.6 81.4477 1336.39 82.3951 1336.54 83.3187L1337.76 90.6464L1349.99 163.845H1332.35V176.15H1370.06C1375.53 176.167 1380.78 173.993 1384.67 170.103C1388.56 166.213 1390.77 160.923 1390.82 155.389V155.389Z" fill="#242729"/>
<path d="M1420.79 90.4572V83.019C1420.78 82.0832 1420.41 81.1864 1419.76 80.5254C1419.1 79.8644 1418.22 79.4932 1417.29 79.4932H1412.15C1411.69 79.4921 1411.23 79.5826 1410.81 79.7593C1410.39 79.936 1410 80.1956 1409.68 80.5231C1409.35 80.8506 1409.1 81.2396 1408.92 81.6679C1408.74 82.0962 1408.65 82.5553 1408.65 83.019V90.4572V175.898H1420.82V90.4572H1420.79Z" fill="#242729"/>
<path d="M1077.53 83.019C1077.53 82.0832 1077.16 81.1864 1076.5 80.5254C1075.85 79.8644 1074.96 79.4932 1074.04 79.4932H1068.95C1068.49 79.4921 1068.04 79.5826 1067.62 79.7593C1067.19 79.936 1066.81 80.1956 1066.48 80.5231C1066.16 80.8506 1065.9 81.2396 1065.72 81.6679C1065.55 82.0962 1065.46 82.5553 1065.46 83.019V90.4572V155.389C1065.42 157.674 1064.48 159.848 1062.85 161.435C1061.23 163.021 1059.05 163.891 1056.79 163.853H1042.14C1041.02 163.879 1039.9 163.681 1038.85 163.269C1037.8 162.858 1036.85 162.241 1036.04 161.455C1035.23 160.668 1034.58 159.728 1034.13 158.687C1033.68 157.646 1033.43 156.525 1033.41 155.389V90.473V83.0348C1033.41 82.5718 1033.32 82.1133 1033.15 81.6855C1032.97 81.2577 1032.72 80.869 1032.39 80.5416C1032.07 80.2142 1031.68 79.9545 1031.26 79.7773C1030.84 79.6001 1030.39 79.509 1029.93 79.509H1024.77C1023.85 79.509 1022.96 79.8804 1022.31 80.5416C1021.66 81.2029 1021.29 82.0997 1021.29 83.0348V90.473V155.389C1021.25 157.675 1020.31 159.851 1018.68 161.438C1017.05 163.024 1014.87 163.893 1012.61 163.853H1000.68C1002.52 159.791 1003.8 154.435 1003.8 147.352C1003.8 124.39 993.774 113.703 972.231 113.703C951.882 113.703 940.67 125.652 940.67 147.352C940.67 154.451 941.886 159.807 943.734 163.853H904.905C906.73 159.27 907.619 153.331 907.619 145.774C907.556 119.106 890.699 115.162 880.657 115.162H850.553C845.5 115.16 840.544 116.568 836.231 119.232V83.019C836.231 82.0839 835.863 81.1871 835.21 80.5259C834.556 79.8646 833.67 79.4932 832.745 79.4932H827.592C826.667 79.4932 825.781 79.8646 825.127 80.5259C824.474 81.1871 824.106 82.0839 824.106 83.019V163.837H774.939C772.684 163.875 770.505 163.008 768.88 161.425C767.255 159.841 766.316 157.671 766.269 155.389V90.473V83.0348C766.269 82.5711 766.179 82.112 766.003 81.6837C765.827 81.2554 765.57 80.8664 765.246 80.5388C764.921 80.2113 764.536 79.9518 764.112 79.7751C763.689 79.5983 763.234 79.5079 762.776 79.509H757.63C756.705 79.5089 755.818 79.8802 755.163 80.5412C754.508 81.2022 754.139 82.099 754.137 83.0348V90.473V155.389C754.185 160.936 756.404 166.237 760.31 170.131C764.215 174.024 769.488 176.192 774.97 176.158H850.6V176.395H880.704C882.981 176.395 885.382 176.395 887.768 176.158H1012.62C1018.14 176.167 1023.45 173.967 1027.38 170.037C1031.3 173.968 1036.61 176.169 1042.13 176.158H1056.78C1062.26 176.179 1067.52 174.006 1071.41 170.114C1075.31 166.222 1077.52 160.928 1077.57 155.389V90.473L1077.53 83.019ZM952.778 147.336C952.778 132.349 958.579 125.992 972.177 125.992C985.049 125.992 991.583 129.289 991.583 147.336C991.583 156.099 989.104 162.047 984.745 163.837H960.497C955.367 162.607 952.778 157.07 952.778 147.336V147.336ZM836.246 138.202C837.806 131.947 843.739 127.443 850.569 127.443H880.673C887.955 127.443 895.401 129.62 895.401 145.758C895.401 154.522 894.068 160.24 891.557 162.323C890.218 163.27 888.643 163.817 887.012 163.9H836.246V138.202Z" fill="#242729"/>
<path d="M687.154 157.661H687.24V156.257C687.24 156.044 687.24 155.823 687.24 155.61V127.822V118.932C687.24 117.997 686.873 117.1 686.219 116.439C685.566 115.778 684.679 115.406 683.755 115.406H678.601C677.677 115.406 676.79 115.778 676.137 116.439C675.483 117.1 675.116 117.997 675.116 118.932V127.822V155.61C675.059 157.894 674.114 160.062 672.486 161.645C670.859 163.228 668.68 164.098 666.422 164.066H625.52C623.264 164.094 621.088 163.221 619.463 161.637C617.839 160.052 616.897 157.884 616.842 155.602V134.479V132.215C616.843 131.751 616.754 131.292 616.579 130.863C616.404 130.435 616.148 130.045 615.824 129.717C615.5 129.389 615.116 129.128 614.692 128.951C614.269 128.773 613.815 128.681 613.357 128.681H608.156C607.698 128.681 607.244 128.773 606.821 128.951C606.397 129.128 606.013 129.389 605.689 129.717C605.365 130.045 605.109 130.435 604.934 130.863C604.759 131.292 604.67 131.751 604.671 132.215V134.479V155.61C604.719 161.158 606.939 166.461 610.847 170.354C614.754 174.248 620.028 176.415 625.512 176.379H666.414C671.548 176.407 676.51 174.51 680.34 171.052C684.171 167.595 686.599 162.824 687.154 157.661V157.661Z" fill="#242729"/>
<path d="M1323.18 157.345H1323.27V155.949C1323.27 155.728 1323.27 155.508 1323.27 155.287V127.506V118.616C1323.27 117.679 1322.9 116.78 1322.25 116.118C1321.59 115.455 1320.7 115.083 1319.78 115.083H1314.63C1314.17 115.082 1313.72 115.172 1313.29 115.35C1312.87 115.527 1312.48 115.787 1312.16 116.115C1311.83 116.444 1311.58 116.834 1311.4 117.263C1311.23 117.692 1311.14 118.152 1311.14 118.616V127.506V155.287C1311.1 157.571 1310.16 159.745 1308.53 161.332C1306.91 162.919 1304.73 163.788 1302.47 163.75H1276.14C1277.7 159.27 1278.48 153.378 1278.48 145.522C1278.48 125.211 1270.08 114.909 1253.53 114.909H1234.71C1233.92 114.908 1233.13 115.067 1232.39 115.375C1231.66 115.684 1230.99 116.137 1230.42 116.708C1228.34 118.822 1227.77 122.442 1230.48 125.834C1230.83 126.26 1231.26 126.602 1231.76 126.836C1232.25 127.069 1232.79 127.188 1233.34 127.183H1240.08H1253.53C1260.27 127.183 1266.32 128.579 1266.32 145.49C1266.32 156.912 1264.58 160.942 1263.13 162.307C1262.15 163.23 1260.36 163.585 1257.86 163.719H1251.2V163.806H1203.29C1201.03 163.854 1198.85 162.996 1197.22 161.418C1195.59 159.841 1194.64 157.673 1194.58 155.389V90.4728V83.0346C1194.58 82.0988 1194.21 81.202 1193.56 80.541C1192.9 79.88 1192.01 79.5088 1191.09 79.5088H1185.9C1184.98 79.5088 1184.09 79.88 1183.44 80.541C1182.78 81.202 1182.41 82.0988 1182.41 83.0346V90.4728V155.389C1182.46 160.936 1184.68 166.237 1188.58 170.131C1192.49 174.024 1197.76 176.191 1203.24 176.158H1253.48C1255.04 176.158 1256.65 176.158 1258.27 176.071H1302.44C1307.58 176.099 1312.54 174.201 1316.37 170.742C1320.2 167.283 1322.63 162.51 1323.18 157.345Z" fill="#242729"/>
<path d="M1166.18 171.583C1171.13 166.921 1173.24 159.199 1173.24 145.758C1173.24 125.439 1164.85 115.138 1148.29 115.138H1134.84H1129.47C1128.67 115.137 1127.89 115.295 1127.15 115.604C1126.41 115.913 1125.74 116.365 1125.18 116.936C1123.1 119.05 1122.53 122.663 1125.24 126.063C1125.58 126.489 1126.02 126.831 1126.52 127.065C1127.01 127.298 1127.55 127.416 1128.1 127.411H1134.84H1148.29C1155.03 127.411 1161.08 128.815 1161.08 145.727C1161.08 157.148 1159.35 161.179 1157.89 162.544C1156.43 163.908 1153.13 164.042 1148.29 164.042H1122.39V176.347H1148.29C1154.29 176.379 1161.08 176.379 1166.18 171.583Z" fill="#242729"/>
<path d="M781.645 228.541H776.483C774.558 228.541 772.998 230.119 772.998 232.067V335.854C772.998 337.801 774.558 339.38 776.483 339.38H781.645C783.569 339.38 785.13 337.801 785.13 335.854V232.067C785.13 230.119 783.569 228.541 781.645 228.541Z" fill="#242729"/>
<path d="M1321.56 228.541H1316.4C1314.48 228.541 1312.92 230.119 1312.92 232.067V335.854C1312.92 337.801 1314.48 339.38 1316.4 339.38H1321.56C1323.49 339.38 1325.05 337.801 1325.05 335.854V232.067C1325.05 230.119 1323.49 228.541 1321.56 228.541Z" fill="#242729"/>
<path d="M751.79 229.148H680.839C679.914 229.148 679.028 229.52 678.374 230.181C677.721 230.842 677.354 231.739 677.354 232.674V237.896C677.354 238.831 677.721 239.728 678.374 240.389C679.028 241.05 679.914 241.421 680.839 241.421H710.295V335.854C710.295 336.789 710.662 337.686 711.316 338.347C711.97 339.008 712.856 339.38 713.78 339.38H718.872C719.796 339.38 720.683 339.008 721.336 338.347C721.99 337.686 722.357 336.789 722.357 335.854V241.421H751.767C752.225 241.421 752.678 241.33 753.101 241.153C753.523 240.976 753.908 240.716 754.231 240.389C754.555 240.061 754.812 239.673 754.987 239.245C755.162 238.817 755.252 238.359 755.252 237.896V232.69C755.256 231.756 754.894 230.859 754.245 230.195C753.596 229.531 752.713 229.154 751.79 229.148V229.148Z" fill="#242729"/>
<path d="M1164.37 291.603C1179.03 287.289 1187.36 276.838 1187.36 261.874C1187.36 241.279 1175.55 229.937 1154.1 229.937C1147.82 229.937 1142.94 229.874 1139.03 229.818C1127.33 229.653 1124.22 229.605 1121.27 232.532C1118.85 234.946 1118.85 237.943 1118.85 239.931V335.901C1118.85 336.364 1118.94 336.823 1119.12 337.251C1119.29 337.678 1119.55 338.067 1119.87 338.394C1120.2 338.722 1120.58 338.982 1121 339.159C1121.43 339.336 1121.88 339.427 1122.34 339.427H1127.5C1127.96 339.427 1128.41 339.336 1128.83 339.159C1129.25 338.982 1129.64 338.722 1129.96 338.394C1130.29 338.067 1130.54 337.678 1130.72 337.251C1130.89 336.823 1130.98 336.364 1130.98 335.901V293.875C1134.72 293.875 1140.21 293.812 1147.51 293.812C1148.96 293.812 1150.37 293.765 1151.74 293.686L1177.95 335.901C1180.29 339.695 1181.7 339.427 1183.63 339.427H1190.57C1192.49 339.427 1193.07 337.85 1191.86 335.901L1164.37 291.603ZM1131 281.594V242.068C1132.99 242.068 1135.79 242.068 1138.86 242.116C1142.81 242.171 1147.73 242.242 1154.1 242.242C1168.92 242.242 1175.2 248.11 1175.2 261.874C1175.2 278.1 1160.15 281.507 1147.52 281.507C1140.26 281.507 1134.76 281.539 1131 281.594Z" fill="#242729"/>
<path d="M882.606 228.541H877.445C876.52 228.541 875.634 228.912 874.98 229.573C874.327 230.235 873.959 231.132 873.959 232.067V275.639H823.093V232.067C823.093 231.132 822.725 230.235 822.072 229.573C821.418 228.912 820.532 228.541 819.607 228.541H814.454C813.529 228.541 812.643 228.912 811.989 229.573C811.336 230.235 810.969 231.132 810.969 232.067V335.854C810.969 336.789 811.336 337.686 811.989 338.347C812.643 339.009 813.529 339.38 814.454 339.38H819.607C820.532 339.38 821.418 339.009 822.072 338.347C822.725 337.686 823.093 336.789 823.093 335.854V287.904H873.959V335.846C873.959 336.781 874.327 337.678 874.98 338.339C875.634 339.001 876.52 339.372 877.445 339.372H882.606C883.531 339.372 884.417 339.001 885.071 338.339C885.724 337.678 886.091 336.781 886.091 335.846V232.067C886.091 231.132 885.724 230.235 885.071 229.573C884.417 228.912 883.531 228.541 882.606 228.541V228.541Z" fill="#242729"/>
<path d="M1039.32 230.166C1033.09 230.166 1028.22 230.032 1024.31 229.929C1014.4 229.677 1010.28 229.566 1006.99 232.816C1005.6 234.191 1004.69 235.984 1004.39 237.927C1004.15 238.415 1004.01 238.956 1004.01 239.505V335.901C1004.01 336.364 1004.1 336.823 1004.28 337.251C1004.45 337.678 1004.71 338.067 1005.03 338.395C1005.36 338.722 1005.74 338.982 1006.16 339.159C1006.59 339.336 1007.04 339.427 1007.5 339.427H1010.06C1010.13 339.427 1013.75 339.482 1019.11 339.482C1024.77 339.482 1032.41 339.419 1039.83 339.167C1064.08 338.378 1076.37 320.007 1076.37 284.654C1076.38 258.301 1073.52 230.166 1039.32 230.166ZM1039.42 326.894C1030.75 327.193 1021.8 327.217 1016.14 327.193V243.512H1016.24V242.155C1018.1 242.092 1020.99 242.155 1024.03 242.25C1028 242.352 1032.95 242.478 1039.35 242.478C1056.22 242.478 1064.24 248.789 1064.24 284.694C1064.22 321.348 1050.97 326.507 1039.43 326.894H1039.42Z" fill="#242729"/>
<path d="M970.96 233.526C968.701 231.689 966.072 230.375 963.257 229.677C958.579 228.478 954.088 228.257 945.324 228.257C936.561 228.257 931.844 228.667 927.391 229.677C923.979 230.378 920.789 231.914 918.098 234.149C909.669 241.737 909.771 257.181 909.919 260.778C909.858 261.037 909.827 261.301 909.825 261.567V282.809C909.748 283.1 909.706 283.399 909.7 283.7V288.922C909.706 289.223 909.748 289.522 909.825 289.813V335.72C909.827 336.655 910.195 337.55 910.848 338.211C911.501 338.872 912.387 339.244 913.31 339.246H918.472C918.93 339.246 919.383 339.155 919.806 338.978C920.228 338.8 920.613 338.541 920.936 338.213C921.26 337.886 921.517 337.497 921.692 337.069C921.867 336.642 921.957 336.183 921.957 335.72V292.432H967.288C967.44 292.424 967.591 292.409 967.74 292.385V335.854C967.74 336.789 968.108 337.686 968.761 338.347C969.415 339.009 970.301 339.38 971.226 339.38H976.387C977.311 339.38 978.198 339.009 978.852 338.347C979.505 337.686 979.872 336.789 979.872 335.854V261.551C979.869 261.382 979.853 261.213 979.825 261.046C980.013 257.931 980.371 241.051 970.96 233.526ZM967.327 280.158H921.996V261.551H922.043C922.043 261.551 920.53 242.029 933.185 240.972C937.863 240.585 954.002 240.601 956.645 240.972C969.222 242.731 967.779 261.551 967.779 261.551V280.206C967.63 280.178 967.479 280.162 967.327 280.158V280.158Z" fill="#242729"/>
<path d="M1274.01 233.526C1271.75 231.689 1269.12 230.375 1266.31 229.677C1261.67 228.478 1257.14 228.257 1248.37 228.257C1239.61 228.257 1234.89 228.667 1230.44 229.677C1227.03 230.378 1223.84 231.914 1221.15 234.149C1212.71 241.737 1212.82 257.181 1212.97 260.778C1212.91 261.037 1212.88 261.301 1212.87 261.567V282.809C1212.8 283.1 1212.75 283.399 1212.75 283.7V288.922C1212.75 289.223 1212.8 289.522 1212.87 289.813V335.72C1212.87 336.183 1212.96 336.642 1213.14 337.069C1213.31 337.497 1213.57 337.886 1213.9 338.213C1214.22 338.541 1214.6 338.8 1215.03 338.978C1215.45 339.155 1215.9 339.246 1216.36 339.246H1221.52C1221.98 339.246 1222.43 339.155 1222.85 338.978C1223.28 338.8 1223.66 338.541 1223.99 338.213C1224.31 337.886 1224.57 337.497 1224.74 337.069C1224.92 336.642 1225.01 336.183 1225.01 335.72V292.432H1270.34C1270.49 292.424 1270.64 292.409 1270.79 292.385V335.854C1270.79 336.789 1271.16 337.686 1271.81 338.347C1272.46 339.009 1273.35 339.38 1274.27 339.38H1279.47C1280.39 339.38 1281.28 339.009 1281.93 338.347C1282.59 337.686 1282.95 336.789 1282.95 335.854V261.551C1282.95 261.382 1282.93 261.213 1282.91 261.046C1283.06 257.931 1283.42 241.051 1274.01 233.526ZM1270.38 280.158H1225.05V261.551H1225.09C1225.09 261.551 1223.58 242.029 1236.23 240.972C1240.91 240.585 1257.05 240.601 1259.69 240.972C1272.27 242.731 1270.83 261.551 1270.83 261.551V280.206C1270.68 280.178 1270.53 280.162 1270.38 280.158Z" fill="#242729"/>
<path d="M661.994 229.148H649.394C646.852 229.053 643.889 228.998 640.466 228.998C634.47 228.92 628.476 229.291 622.534 230.11C619.243 230.52 616.153 231.928 613.669 234.149C606.363 240.719 605.466 253.19 605.451 258.743V310.306C605.505 316.008 606.503 328.124 613.669 334.568C616.153 336.789 619.243 338.197 622.534 338.607C628.476 339.426 634.47 339.798 640.466 339.719C643.889 339.719 646.852 339.664 649.394 339.569H661.994C662.451 339.569 662.905 339.478 663.327 339.301C663.75 339.124 664.134 338.864 664.458 338.537C664.782 338.209 665.038 337.82 665.214 337.393C665.389 336.965 665.479 336.506 665.479 336.043V330.83C665.479 330.367 665.389 329.908 665.214 329.48C665.038 329.052 664.782 328.664 664.458 328.336C664.134 328.009 663.75 327.749 663.327 327.572C662.905 327.395 662.451 327.304 661.994 327.304H638.213C634.042 327.225 630.143 327.091 628.303 326.933C618.947 326.144 617.871 316.221 617.668 310.613C617.622 309.162 617.606 307.979 617.598 307.458V288.188H661.994C662.918 288.188 663.804 287.817 664.458 287.155C665.112 286.494 665.479 285.597 665.479 284.662V279.448C665.479 278.513 665.112 277.617 664.458 276.955C663.804 276.294 662.918 275.923 661.994 275.923H617.598V261.259C617.598 260.747 617.598 259.555 617.668 258.104C617.871 252.496 618.924 242.565 628.303 241.784C630.143 241.634 634.042 241.5 638.213 241.421H661.994C662.918 241.421 663.804 241.05 664.458 240.389C665.112 239.728 665.479 238.831 665.479 237.896V232.69C665.481 232.225 665.392 231.765 665.218 231.336C665.044 230.906 664.787 230.515 664.464 230.186C664.14 229.857 663.755 229.596 663.331 229.418C662.907 229.24 662.453 229.148 661.994 229.148V229.148Z" fill="#242729"/>
<path d="M1416.94 327.343H1393.15C1388.99 327.264 1385.08 327.13 1383.24 326.973C1373.89 326.184 1372.81 316.261 1372.61 310.653C1372.61 309.438 1372.55 308.397 1372.55 307.789V232.067C1372.55 231.132 1372.18 230.235 1371.53 229.573C1370.87 228.912 1369.99 228.541 1369.06 228.541H1363.9C1362.98 228.541 1362.09 228.912 1361.44 229.573C1360.78 230.235 1360.41 231.132 1360.41 232.067V311.568C1360.42 311.91 1360.48 312.25 1360.58 312.577C1360.95 319.179 1362.52 330.065 1368.63 334.608C1371.09 336.438 1373.81 338.126 1377.5 338.646C1383.44 339.465 1389.43 339.837 1395.43 339.759C1398.85 339.759 1401.82 339.703 1404.36 339.609H1416.97C1417.89 339.609 1418.78 339.237 1419.43 338.576C1420.08 337.915 1420.45 337.018 1420.45 336.083V330.869C1420.45 330.404 1420.36 329.944 1420.18 329.514C1420.01 329.085 1419.75 328.695 1419.42 328.368C1419.1 328.04 1418.71 327.781 1418.28 327.605C1417.86 327.429 1417.4 327.34 1416.94 327.343V327.343Z" fill="#242729"/>
</svg>
